{
  "accessors": [
    {
      "bufferView": 2,
      "componentType": 5126,
      "count": 65532,
      "max": [
        0.16759400069713593,
        0.2222069948911667,
        0.15738700330257416
      ],
      "min": [
        -0.1557130068540573,
        -0.057363998144865036,
        -0.15738700330257416
      ],
      "type": "VEC3"
    },
    {
      "bufferView": 2,
      "byteOffset": 786384,
      "componentType": 5126,
      "count": 65532,
      "max": [
        0.999997079372406,
        0.9999991655349731,
        0.9999831318855286
      ],
      "min": [
        -0.9999902248382568,
        -0.9998342394828796,
        -0.9999569654464722
      ],
      "type": "VEC3"
    },
    {
      "bufferView": 1,
      "componentType": 5126,
      "count": 65532,
      "max": [
        0.9988160133361816,
        0.9992240071296692
      ],
      "min": [
        2.9999999242136255e-05,
        0.0
      ],
      "type": "VEC2"
    },
    {
      "bufferView": 0,
      "componentType": 5125,
      "count": 244947,
      "type": "SCALAR"
    },
    {
      "bufferView": 2,
      "byteOffset": 1572768,
      "componentType": 5126,
      "count": 65397,
      "max": [
        0.16759400069713593,
        0.2222069948911667,
        0.15265899896621704
      ],
      "min": [
        -0.16759400069713593,
        -0.05661400035023689,
        -0.15592199563980103
      ],
      "type": "VEC3"
    },
    {
      "bufferView": 2,
      "byteOffset": 2357532,
      "componentType": 5126,
      "count": 65397,
      "max": [
        0.999997079372406,
        0.999999463558197,
        0.999992847442627
      ],
      "min": [
        -0.9999924898147583,
        -0.9999438524246216,
        -0.9999580979347229
      ],
      "type": "VEC3"
    },
    {
      "bufferView": 1,
      "byteOffset": 524256,
      "componentType": 5126,
      "count": 65397,
      "max": [
        0.9989809989929199,
        0.9999669790267944
      ],
      "min": [
        1.9999999949504854e-06,
        2.499999936844688e-05
      ],
      "type": "VEC2"
    },
    {
      "bufferView": 0,
      "byteOffset": 979788,
      "componentType": 5125,
      "count": 236781,
      "type": "SCALAR"
    }
  ],
  "asset": {
    "extras": {
      "author": "Hialda Alpizar (https://sketchfab.com/dahlia3d)",
      "license": "CC-BY-4.0 (http://creativecommons.org/licenses/by/4.0/)",
      "source": "https://sketchfab.com/3d-models/succulent-arrangement-4748b5fc091b48ea834d37678851a27c",
      "title": "Succulent Arrangement"
    },
    "generator": "Sketchfab-13.66.0",
    "version": "2.0"
  },
  "bufferViews": [
    {
      "buffer": 0,
      "byteLength": 1926912,
      "name": "floatBufferViews",
      "target": 34963
    },
    {
      "buffer": 0,
      "byteLength": 1047432,
      "byteOffset": 1926912,
      "byteStride": 8,
      "name": "floatBufferViews",
      "target": 34962
    },
    {
      "buffer": 0,
      "byteLength": 3142296,
      "byteOffset": 2974344,
      "byteStride": 12,
      "name": "floatBufferViews",
      "target": 34962
    }
  ],
  "buffers": [
    {
      "byteLength": 6116640,
      "uri": "scene.bin"
    }
  ],
  "images": [
    {
      "uri": "textures/textured_0_baseColor.jpeg"
    },
    {
      "uri": "textures/textured_0_metallicRoughness.png"
    }
  ],
  "materials": [
    {
      "doubleSided": true,
      "name": "textured_0",
      "occlusionTexture": {
        "index": 1
      },
      "pbrMetallicRoughness": {
        "baseColorTexture": {
          "index": 0
        },
        "metallicFactor": 0.0,
        "metallicRoughnessTexture": {
          "index": 1
        }
      }
    }
  ],
  "meshes": [
    {
      "name": "textured_textured_0_0",
      "primitives": [
        {
          "attributes": {
            "NORMAL": 1,
            "POSITION": 0,
            "TEXCOORD_0": 2
          },
          "indices": 3,
          "material": 0,
          "mode": 4
        }
      ]
    },
    {
      "name": "textured_textured_0_0",
      "primitives": [
        {
          "attributes": {
            "NORMAL": 5,
            "POSITION": 4,
            "TEXCOORD_0": 6
          },
          "indices": 7,
          "material": 0,
          "mode": 4
        }
      ]
    }
  ],
  "nodes": [
    {
      "children": [
        1
      ],
      "matrix": [
        1.5228018760681152,
        2.448459545027052e-16,
        -4.385458905323687e-18,
        0.0,
        0.0,
        -0.027270675540858155,
        -1.522557715353571,
        0.0,
        -2.4488521471876083e-16,
        1.522557715353571,
        -0.027270675540858155,
        0.0,
        0.0,
        0.0,
        0.0,
        1.0
      ],
      "name": "Sketchfab_model"
    },
    {
      "children": [
        2
      ],
      "matrix": [
        0.009999999776482582,
        0.0,
        0.0,
        0.0,
        0.0,
        0.0,
        0.009999999776482582,
        0.0,
        0.0,
        -0.009999999776482582,
        0.0,
        0.0,
        0.0,
        0.0,
        0.0,
        1.0
      ],
      "name": "65a16109d4064e7eb9704b6f29317c3e.fbx"
    },
    {
      "children": [
        3
      ],
      "name": "RootNode"
    },
    {
      "children": [
        4,
        5
      ],
      "matrix": [
        100.0,
        0.0,
        0.0,
        0.0,
        0.0,
        99.99999999999866,
        1.6292067073209114e-05,
        0.0,
        0.0,
        -1.6292067073209114e-05,
        99.99999999999866,
        0.0,
        0.0,
        0.0,
        0.0,
        1.0
      ],
      "name": "textured"
    },
    {
      "mesh": 0,
      "name": "textured_textured_0_0"
    },
    {
      "mesh": 1,
      "name": "textured_textured_0_0"
    }
  ],
  "samplers": [
    {
      "magFilter": 9729,
      "minFilter": 9987,
      "wrapS": 10497,
      "wrapT": 10497
    }
  ],
  "scene": 0,
  "scenes": [
    {
      "name": "Sketchfab_Scene",
      "nodes": [
        0
      ]
    }
  ],
  "textures": [
    {
      "sampler": 0,
      "source": 0
    },
    {
      "sampler": 0,
      "source": 1
    }
  ]
}
