{
    "asset" : {
        "generator" : "Khronos glTF Blender I/O v1.7.33",
        "version" : "2.0"
    },
    "scene" : 0,
    "scenes" : [
        {
            "name" : "Scene",
            "nodes" : [
                0,
                1
            ]
        }
    ],
    "nodes" : [
        {
            "name" : "Cube",
            "translation" : [
                0,
                2.174800157546997,
                0
            ]
        },
        {
            "mesh" : 0,
            "name" : "Cube.001",
            "translation" : [
                0,
                0.017790913581848145,
                0
            ]
        }
    ],
    "materials" : [
        {
            "doubleSided" : true,
            "name" : "molasse",
            "pbrMetallicRoughness" : {
                "baseColorTexture" : {
                    "index" : 0
                },
                "metallicFactor" : 0,
                "roughnessFactor" : 0.1818181723356247
            }
        }
    ],
    "meshes" : [
        {
            "name" : "Cube.001",
            "primitives" : [
                {
                    "attributes" : {
                        "POSITION" : 0,
                        "NORMAL" : 1,
                        "TEXCOORD_0" : 2,
                        "COLOR_0" : 3
                    },
                    "indices" : 4,
                    "material" : 0
                }
            ]
        }
    ],
    "textures" : [
        {
            "sampler" : 0,
            "source" : 0
        }
    ],
    "images" : [
        {
            "mimeType" : "image/jpeg",
            "name" : "molasse",
            "uri" : "textures/molasse.jpg"
        }
    ],
    "accessors" : [
        {
            "bufferView" : 0,
            "componentType" : 5126,
            "count" : 1218,
            "max" : [
                0.9018750190734863,
                1.0058801174163818,
                0.9722949266433716
            ],
            "min" : [
                -0.8874638676643372,
                -0.9680091142654419,
                -0.8544802069664001
            ],
            "type" : "VEC3"
        },
        {
            "bufferView" : 1,
            "componentType" : 5126,
            "count" : 1218,
            "type" : "VEC3"
        },
        {
            "bufferView" : 2,
            "componentType" : 5126,
            "count" : 1218,
            "type" : "VEC2"
        },
        {
            "bufferView" : 3,
            "componentType" : 5123,
            "count" : 1218,
            "normalized" : true,
            "type" : "VEC4"
        },
        {
            "bufferView" : 4,
            "componentType" : 5123,
            "count" : 1428,
            "type" : "SCALAR"
        }
    ],
    "bufferViews" : [
        {
            "buffer" : 0,
            "byteLength" : 14616,
            "byteOffset" : 0
        },
        {
            "buffer" : 0,
            "byteLength" : 14616,
            "byteOffset" : 14616
        },
        {
            "buffer" : 0,
            "byteLength" : 9744,
            "byteOffset" : 29232
        },
        {
            "buffer" : 0,
            "byteLength" : 9744,
            "byteOffset" : 38976
        },
        {
            "buffer" : 0,
            "byteLength" : 2856,
            "byteOffset" : 48720
        }
    ],
    "samplers" : [
        {
            "magFilter" : 9729,
            "minFilter" : 9987
        }
    ],
    "buffers" : [
        {
            "byteLength" : 51576,
            "uri" : "molasse.bin"
        }
    ]
}
